Coordinates
version=1
nRows=5
nColumns=40
inDegrees=yes

Units are S.I. units (second, meters, Newtons, ...)
If the header above contains a line with 'inDegrees', this indicates whether rotational values are in degrees (yes) or radians (no).

endheader
time	pelvis_tilt	pelvis_list	pelvis_rotation	pelvis_tx	pelvis_ty	pelvis_tz	hip_flexion_r	hip_adduction_r	hip_rotation_r	knee_angle_r	knee_angle_r_beta	ankle_angle_r	subtalar_angle_r	mtp_angle_r	hip_flexion_l	hip_adduction_l	hip_rotation_l	knee_angle_l	knee_angle_l_beta	ankle_angle_l	subtalar_angle_l	mtp_angle_l	lumbar_extension	lumbar_bending	lumbar_rotation	arm_flex_r	arm_add_r	arm_rot_r	elbow_flex_r	pro_sup_r	wrist_flex_r	wrist_dev_r	arm_flex_l	arm_add_l	arm_rot_l	elbow_flex_l	pro_sup_l	wrist_flex_l	wrist_dev_l
      0.35600000	     22.62257112	      1.00490725	      4.22035684	      0.50558109	      0.97352636	     -0.30000264	    -11.40780306	      3.23523286	     -6.95844415	     19.43825829	      0.33926161	     -4.79783728	      0.00000000	      0.00000000	    -17.42470777	     -3.03171733	      2.44574706	     57.91544099	      1.01081513	    -24.21871429	      0.00000000	      0.00000000	    -34.10846100	      3.19210891	     -3.86138228	     -0.77488832	    -16.07675510	      9.66315057	     42.94660440	     78.09544397	      0.00000000	      0.00000000	      2.24036552	    -23.02835869	     24.18203159	     44.49189764	     78.42071127	      0.00000000	      0.00000000
      0.36000000	     23.21954738	      0.98293823	      4.32652037	      0.51262960	      0.97536636	     -0.29960756	    -13.18695493	      3.50307984	     -7.21392475	     18.09418353	      0.31580308	     -5.20068266	      0.00000000	      0.00000000	    -17.67996867	     -3.22576880	      2.45338546	     57.72957518	      1.00757116	    -23.77104340	      0.00000000	      0.00000000	    -34.54898947	      3.24449186	     -3.92512039	     -0.72654765	    -15.99963052	      9.70663985	     43.19554718	     78.20429074	      0.00000000	      0.00000000	      1.73816113	    -23.12860418	     23.77113300	     44.66066716	     79.69480460	      0.00000000	      0.00000000
      0.36400000	     23.28872112	      0.91309741	      4.25555628	      0.51881274	      0.97627366	     -0.29894894	    -13.97484395	      3.67448254	     -7.31444214	     17.50053400	      0.30544194	     -5.20295219	      0.00000000	      0.00000000	    -17.15319076	     -3.31543702	      2.39578572	     57.92587790	      1.01099729	    -22.87207952	      0.00000000	      0.00000000	    -34.54555432	      3.20368997	     -3.76072629	     -0.71448202	    -15.94023834	      9.67502568	     43.58442896	     78.23132550	      0.00000000	      0.00000000	      1.40248516	    -23.24132915	     23.62946919	     44.74152381	     79.97445319	      0.00000000	      0.00000000
      0.36800000	     23.42111771	      0.85686464	      4.26499734	      0.52502766	      0.97726531	     -0.29851783	    -14.96721614	      3.87763381	     -7.41713838	     16.61558159	      0.28999661	     -5.37055908	      0.00000000	      0.00000000	    -16.71600099	     -3.45386259	      2.34121153	     58.00075469	      1.01230414	    -22.09776995	      0.00000000	      0.00000000	    -34.59232870	      3.21158955	     -3.62383369	     -0.76243985	    -15.84541817	      9.48110034	     44.00257669	     78.38222063	      0.00000000	      0.00000000	      1.12230731	    -23.31122476	     23.53748704	     44.82111118	     80.46380753	      0.00000000	      0.00000000
      0.37200000	     23.61091345	      0.79836546	      4.17702985	      0.53129988	      0.97837230	     -0.29815135	    -16.08569536	      4.05842118	     -7.37981632	     15.60263524	      0.27231736	     -5.60871346	      0.00000000	      0.00000000	    -16.39086732	     -3.48504739	      2.30053763	     57.96888681	      1.01174794	    -21.47011359	      0.00000000	      0.00000000	    -34.70071652	      3.20596441	     -3.41070318	     -0.73870739	    -15.85812460	      9.34077837	     44.27627501	     77.85932488	      0.00000000	      0.00000000	      0.69979507	    -23.38896139	     23.83476869	     44.76020669	     82.43407539	      0.00000000	      0.00000000
